<svg width="333" height="410" fill="none" xmlns="http://www.w3.org/2000/svg"><path fill-rule="evenodd" clip-rule="evenodd" d="M203.347 372.359c-20.401 11.535-40.589 20.425-59.874 26.458-49.773 15.57-93.244 12.037-119.014-13.733-25.77-25.77-29.303-69.241-13.733-119.014 6.053-19.348 14.981-39.605 26.571-60.074 18.165 31.75 42.687 63.95 72.761 94.023 29.842 29.842 61.777 54.218 93.289 72.34Zm1.01-.573c-31.591-18.103-63.642-42.524-93.592-72.474-30.182-30.182-54.75-62.497-72.893-94.327 18.14-31.807 42.694-64.098 72.854-94.259 29.963-29.962 62.027-54.39 93.631-72.495 31.885 18.153 64.262 42.754 94.498 72.991 30.005 30.004 54.46 62.117 72.572 93.764-18.116 31.668-42.584 63.805-72.61 93.831-30.224 30.224-62.588 54.818-94.46 72.969Zm-.001 1.151c-73.388 41.648-144.204 49.253-180.604 12.854-36.432-36.433-28.78-107.346 12.97-180.806C-4.995 131.55-12.63 60.669 23.79 24.248 60.184-12.145 130.982-4.55 204.356 37.08 278.04-4.984 349.254-12.784 385.791 23.752c36.503 36.504 28.75 107.621-13.212 181.233 41.996 73.637 49.765 144.787 13.251 181.301-36.543 36.543-107.776 28.734-181.474-13.349Zm167.646-166.943c11.728 20.638 20.752 41.067 26.854 60.572 15.57 49.772 12.037 93.243-13.733 119.013-25.77 25.77-69.241 29.304-119.014 13.734-19.559-6.119-40.047-15.176-60.743-26.951 31.793-18.173 64.042-42.722 94.158-72.838 29.918-29.918 54.342-61.94 72.478-93.53Zm0-2.017c11.709-20.615 20.72-41.02 26.815-60.504 15.57-49.773 12.037-93.244-13.733-119.014-25.77-25.77-69.241-29.303-119.014-13.733-19.546 6.115-40.021 15.165-60.704 26.929 31.806 18.175 64.068 42.731 94.197 72.86 29.896 29.897 54.307 61.894 72.439 93.462ZM203.347 37.657c-20.388-11.524-40.563-20.407-59.835-26.436C93.739-4.349 50.268-.815 24.498 24.955c-25.77 25.77-29.303 69.24-13.733 119.013 6.046 19.327 14.961 39.561 26.533 60.007 18.16-31.728 42.669-63.903 72.721-93.956 29.855-29.854 61.804-54.237 93.328-72.361Z" fill="#737373"/></svg>