<svg width="333" height="410" viewBox="0 0 333 410" fill="none" xmlns="http://www.w3.org/2000/svg">
<path fill-rule="evenodd" clip-rule="evenodd" d="M203.347 372.359C182.946 383.894 162.758 392.784 143.473 398.817C93.7002 414.387 50.2294 410.854 24.4594 385.084C-1.31052 359.314 -4.84391 315.843 10.7261 266.07C16.7785 246.722 25.7073 226.465 37.2974 205.996C55.4621 237.746 79.9842 269.946 110.058 300.019C139.9 329.861 171.835 354.237 203.347 372.359ZM204.357 371.786C172.766 353.683 140.715 329.262 110.765 299.312C80.5827 269.13 56.0157 236.815 37.8718 204.985C56.0119 173.178 80.5655 140.887 110.726 110.726C140.689 80.764 172.753 56.3354 204.357 38.2308C236.242 56.3842 268.619 80.9852 298.855 111.222C328.86 141.226 353.315 173.339 371.427 204.986C353.311 236.654 328.843 268.791 298.817 298.817C268.593 329.041 236.229 353.635 204.357 371.786ZM204.356 372.937C130.968 414.585 60.1516 422.19 23.7523 385.791C-12.6803 349.358 -5.0276 278.445 36.7211 204.985C-4.99368 131.55 -12.6304 60.6691 23.791 24.2477C60.1838 -12.1451 130.982 -4.54892 204.356 37.0797C278.04 -4.98355 349.254 -12.7844 385.791 23.7523C422.294 60.2556 414.541 131.373 372.579 204.985C414.575 278.622 422.344 349.772 385.83 386.286C349.287 422.829 278.054 415.02 204.356 372.937ZM372.002 205.994C383.73 226.632 392.754 247.061 398.856 266.566C414.426 316.338 410.893 359.809 385.123 385.579C359.353 411.349 315.882 414.883 266.109 399.313C246.55 393.194 226.062 384.137 205.366 372.362C237.159 354.189 269.408 329.64 299.524 299.524C329.442 269.606 353.866 237.584 372.002 205.994ZM372.002 203.977C383.711 183.362 392.722 162.957 398.817 143.473C414.387 93.7002 410.854 50.2294 385.084 24.4594C359.314 -1.31055 315.843 -4.84394 266.07 10.726C246.524 16.8406 226.049 25.8908 205.366 37.655C237.172 55.8295 269.434 80.3862 299.563 110.515C329.459 140.412 353.87 172.409 372.002 203.977ZM203.347 37.6576C182.959 26.1332 162.784 17.2503 143.512 11.2214C93.7389 -4.34856 50.2681 -0.815165 24.4981 24.9548C-1.27188 50.7248 -4.80528 94.1956 10.7647 143.968C16.8105 163.295 25.7262 183.529 37.2976 203.975C55.4584 172.247 79.967 140.072 110.019 110.019C139.874 80.1651 171.823 55.7818 203.347 37.6576Z" fill="#737373"/>
</svg>
